@startuml
skinparam monochrome true
skinparam packageStyle rectangle
skinparam shadowing false
'skinparam linetype ortho
'left to right direction
skinparam classAttributeIconSize 0
hide circle
hide methods

title Domain Model

class System {
advertisements
application
___
}

class SystemAdministrator {
___
}

class NetworkBranch {
designation
location
email
phone number
___
}

class Store {
location
___
}

SystemAdministrator "1" -- "*" Employee : registers >
SystemAdministrator "1" -- "*" NetworkBranch : registers >
SystemAdministrator "1" -- "*" Store : registers >
SystemAdministrator "1" -- "1" System : prepares >
@enduml